<svg t="1734508007220" class="icon" viewBox="0 0 1024 1024" version="1.1"
  xmlns="http://www.w3.org/2000/svg" p-id="6348" width="200" height="200">
  <path
    d="M930.13504 903.47008H93.87008a8.54016 8.54016 0 0 1-8.53504-8.54016v-25.6c0-4.7104 3.81952-8.52992 8.53504-8.52992h836.26496c4.7104 0 8.52992 3.81952 8.52992 8.52992v25.6c0 4.7104-3.81952 8.54016-8.52992 8.54016zM746.66496 664.52992h-170.65984a8.53504 8.53504 0 0 1-8.54016-8.52992v-25.6c0-4.7104 3.81952-8.52992 8.54016-8.52992h170.65984c4.72064 0 8.54016 3.81952 8.54016 8.52992v25.6c0 4.7104-3.81952 8.52992-8.54016 8.52992z m157.87008-544H119.47008c-4.71552 0-8.53504 3.82464-8.53504 8.53504v665.60512c0 4.7104 3.81952 8.52992 8.53504 8.52992h785.06496c4.7104 0 8.52992-3.81952 8.52992-8.52992V129.06496c0-4.7104-3.81952-8.53504-8.52992-8.53504z m-563.2 149.33504c51.84 0 93.87008 42.02496 93.87008 93.86496s-42.03008 93.86496-93.87008 93.86496-93.86496-42.02496-93.86496-93.86496 42.02496-93.86496 93.86496-93.86496z m-93.86496 245.33504c0-4.71552 3.81952-8.53504 8.53504-8.53504h170.66496c4.71552 0 8.53504 3.81952 8.53504 8.53504v25.6c0 4.7104-3.81952 8.52992-8.53504 8.52992H256.00512a8.52992 8.52992 0 0 1-8.53504-8.52992v-25.6zM768.14848 432.4864l-0.14336 0.14848v0.24576l-16.03072 16.0256h-0.256l-68.04992 68.04992a8.50432 8.50432 0 0 1-12.05248 0l-18.10432-18.0992a8.53504 8.53504 0 0 1 0-12.06272l37.88288-37.88288h-54.13888l-212.23936 212.23936a8.51456 8.51456 0 0 1-6.87616 3.52256H256.00512a8.52992 8.52992 0 0 1-8.53504-8.52992v-25.6c0-4.72064 3.81952-8.54016 8.53504-8.54016h147.8144l212.24448-212.23936a8.5248 8.5248 0 0 1 6.88128-3.52256h70.8864l-40.30976-40.31488a8.5248 8.5248 0 0 1 0-12.06784l18.09408-18.10432a8.52992 8.52992 0 0 1 12.06784 0l84.46464 84.47488c1.6896 1.6896 2.5088 3.91168 2.48832 6.12864 0.03072 2.29376-0.85504 4.5056-2.48832 6.12864z"
    p-id="6349"></path>
</svg>