<svg class="icon" width="200px" height="200.00px" viewBox="0 0 1024 1024" version="1.1"
  xmlns="http://www.w3.org/2000/svg">
  <path
    d="M170.666667 85.333333a85.333333 85.333333 0 0 0-85.333334 85.333334v213.333333a85.333333 85.333333 0 0 0 85.333334 85.333333h213.333333a85.333333 85.333333 0 0 0 85.333333-85.333333V170.666667a85.333333 85.333333 0 0 0-85.333333-85.333334H170.666667zM170.666667 554.666667a85.333333 85.333333 0 0 0-85.333334 85.333333v213.333333a85.333333 85.333333 0 0 0 85.333334 85.333334h213.333333a85.333333 85.333333 0 0 0 85.333333-85.333334v-213.333333a85.333333 85.333333 0 0 0-85.333333-85.333333H170.666667zM640 85.333333a85.333333 85.333333 0 0 0-85.333333 85.333334v213.333333a85.333333 85.333333 0 0 0 85.333333 85.333333h213.333333a85.333333 85.333333 0 0 0 85.333334-85.333333V170.666667a85.333333 85.333333 0 0 0-85.333334-85.333334h-213.333333zM640 554.666667a85.333333 85.333333 0 0 0-85.333333 85.333333v213.333333a85.333333 85.333333 0 0 0 85.333333 85.333334h213.333333a85.333333 85.333333 0 0 0 85.333334-85.333334v-213.333333a85.333333 85.333333 0 0 0-85.333334-85.333333h-213.333333z"
    fill-opacity=".85" />
</svg>