<svg id="Layer_1" enable-background="new 0 0 450 450" viewBox="0 0 450 450" xmlns="http://www.w3.org/2000/svg" xmlns:xlink="http://www.w3.org/1999/xlink"> <linearGradient id="SVGID_1_" gradientTransform="matrix(1 0 0 -1 0 452)" gradientUnits="userSpaceOnUse" x1="18.84" x2="377.466" y1="428.968" y2="70.341"> <stop offset="0" stop-color="#80CBC4"/> <stop offset="1" stop-color="#AED581"/> </linearGradient> <path d="m298.08 431.83h-263.19c-16.89 0-30.63-13.74-30.63-30.63v-350.92c0-16.89 13.74-30.63 30.63-30.63h263.19c16.89 0 30.63 13.74 30.63 30.63v166.56c0 2.76-2.24 5-5 5s-5-2.24-5-5v-166.56c0-11.38-9.25-20.63-20.63-20.63h-263.19c-11.38 0-20.63 9.25-20.63 20.63v350.92c0 11.38 9.25 20.63 20.63 20.63h263.19c11.38 0 20.63-9.25 20.63-20.63v-22.14c0-2.76 2.24-5 5-5s5 2.24 5 5v22.14c0 16.89-13.74 30.63-30.63 30.63zm-73.93-355.61h-143.92c-2.76 0-5-2.24-5-5s2.24-5 5-5h143.92c2.76 0 5 2.24 5 5s-2.24 5-5 5zm0 37.46h-143.92c-2.76 0-5-2.24-5-5s2.24-5 5-5h143.92c2.76 0 5 2.24 5 5s-2.24 5-5 5zm0 37.46h-143.92c-2.76 0-5-2.24-5-5s2.24-5 5-5h143.92c2.76 0 5 2.24 5 5s-2.24 5-5 5zm0 37.46h-143.92c-2.76 0-5-2.24-5-5s2.24-5 5-5h143.92c2.76 0 5 2.24 5 5s-2.24 5-5 5zm-166.84-112.38h-17.25c-2.76 0-5-2.24-5-5s2.24-5 5-5h17.25c2.76 0 5 2.24 5 5s-2.24 5-5 5zm0 37.46h-17.25c-2.76 0-5-2.24-5-5s2.24-5 5-5h17.25c2.76 0 5 2.24 5 5s-2.24 5-5 5zm0 37.46h-17.25c-2.76 0-5-2.24-5-5s2.24-5 5-5h17.25c2.76 0 5 2.24 5 5s-2.24 5-5 5zm0 37.46h-17.25c-2.76 0-5-2.24-5-5s2.24-5 5-5h17.25c2.76 0 5 2.24 5 5s-2.24 5-5 5zm14.3 196.66c-2.76 0-5-2.24-5-5v-105.9h-21.55v105.9c0 2.76-2.24 5-5 5s-5-2.24-5-5v-110.9c0-2.76 2.24-5 5-5h31.54c2.76 0 5 2.24 5 5v110.9c.01 2.76-2.23 5-4.99 5zm149.34 0h-180.89c-2.76 0-5-2.24-5-5s2.24-5 5-5h180.88c2.76 0 5 2.24 5 5s-2.23 5-4.99 5zm-99.56 0c-2.76 0-5-2.24-5-5v-123.15h-21.54v123.15c0 2.76-2.24 5-5 5s-5-2.24-5-5v-128.15c0-2.76 2.24-5 5-5h31.54c2.76 0 5 2.24 5 5v128.15c0 2.76-2.24 5-5 5zm49.78 0c-2.76 0-5-2.24-5-5v-143.09h-21.54v143.08c0 2.76-2.24 5-5 5s-5-2.24-5-5v-148.07c0-2.76 2.24-5 5-5h31.54c2.76 0 5 2.24 5 5v148.08c0 2.76-2.24 5-5 5zm49.78 0c-2.76 0-5-2.24-5-5v-166.12h-21.55v166.12c0 2.76-2.24 5-5 5s-5-2.24-5-5v-171.12c0-2.76 2.24-5 5-5h31.54c2.76 0 5 2.24 5 5v171.12c.01 2.76-2.23 5-4.99 5zm3.2-234.12c-1.15 0-2.3-.39-3.24-1.2-2.1-1.79-2.35-4.95-.56-7.05l55.86-65.5c1.79-2.1 4.95-2.35 7.05-.56s2.35 4.95.56 7.05l-55.86 65.5c-.99 1.17-2.4 1.76-3.81 1.76zm116.81-32.99c-1.1 0-2.21-.36-3.14-1.11l-42.38-34.23c-2.15-1.74-2.48-4.88-.75-7.03 1.74-2.15 4.89-2.48 7.03-.75l42.38 34.23c2.15 1.74 2.48 4.88.75 7.03-.99 1.22-2.44 1.86-3.89 1.86zm19.38-.97c-1.29 0-2.58-.5-3.56-1.49-1.94-1.96-1.92-5.13.04-7.07l36.52-36.1c1.96-1.94 5.13-1.92 7.07.04s1.92 5.13-.04 7.07l-36.52 36.1c-.97.97-2.24 1.45-3.51 1.45zm-71.88-28.42c-9.93 0-18.02-8.08-18.02-18.01s8.08-18.01 18.02-18.01c9.93 0 18.01 8.08 18.01 18.01s-8.08 18.01-18.01 18.01zm0-26.03c-4.42 0-8.02 3.6-8.02 8.01s3.6 8.01 8.02 8.01 8.01-3.6 8.01-8.01-3.59-8.01-8.01-8.01zm62.62 76.61c-9.93 0-18.01-8.08-18.01-18.01s8.08-18.01 18.01-18.01 18.01 8.08 18.01 18.01-8.07 18.01-18.01 18.01zm0-26.03c-4.42 0-8.01 3.6-8.01 8.01s3.6 8.01 8.01 8.01 8.01-3.6 8.01-8.01-3.59-8.01-8.01-8.01zm64.23-24.52c-17.07 0-30.95-13.88-30.95-30.95s13.88-30.95 30.95-30.95 30.95 13.88 30.95 30.95-13.88 30.95-30.95 30.95zm0-51.9c-11.55 0-20.95 9.4-20.95 20.95s9.4 20.95 20.95 20.95 20.95-9.4 20.95-20.95-9.4-20.95-20.95-20.95zm-77.55 348.37c-48.14 0-87.31-39.17-87.31-87.31s39.17-87.31 87.31-87.31 87.31 39.17 87.31 87.31-39.17 87.31-87.31 87.31zm0-164.62c-42.63 0-77.31 34.68-77.31 77.31s34.68 77.31 77.31 77.31 77.31-34.68 77.31-77.31-34.68-77.31-77.31-77.31zm0 122.72c-25.04 0-45.42-20.37-45.42-45.42s20.37-45.42 45.42-45.42 45.42 20.37 45.42 45.42-20.38 45.42-45.42 45.42zm0-80.83c-19.53 0-35.42 15.89-35.42 35.42s15.89 35.42 35.42 35.42 35.42-15.89 35.42-35.42-15.89-35.42-35.42-35.42zm0 0c-2.76 0-5-2.24-5-5v-41.89c0-2.76 2.24-5 5-5s5 2.24 5 5v41.89c0 2.76-2.24 5-5 5zm39.03 29.96c-2.21 0-4.23-1.47-4.83-3.71-.71-2.67.87-5.41 3.54-6.12l40.47-10.84c2.67-.71 5.41.87 6.12 3.54s-.87 5.41-3.54 6.12l-40.47 10.84c-.42.11-.86.17-1.29.17zm2.13 81.74c-1.73 0-3.41-.9-4.33-2.5l-20.95-36.28c-1.38-2.39-.56-5.45 1.83-6.83s5.45-.56 6.83 1.83l20.95 36.28c1.38 2.39.56 5.45-1.83 6.83-.79.45-1.65.67-2.5.67zm-99.36-13.08c-1.28 0-2.56-.49-3.54-1.46-1.95-1.95-1.95-5.12 0-7.07l29.62-29.62c1.95-1.95 5.12-1.95 7.07 0s1.95 5.12 0 7.07l-29.62 29.62c-.97.97-2.25 1.46-3.53 1.46zm23.19-78.41c-.85 0-1.71-.22-2.49-.67l-36.28-20.95c-2.39-1.38-3.21-4.44-1.83-6.83s4.44-3.21 6.83-1.83l36.28 20.95c2.39 1.38 3.21 4.44 1.83 6.83-.93 1.6-2.61 2.5-4.34 2.5z" fill="url(#SVGID_1_)"/></svg>