<svg height="126" node-id="1" sillyvg="true" template-height="126" template-width="126" version="1.1" viewBox="0 0 126 126" width="126" xmlns="http://www.w3.org/2000/svg" xmlns:xlink="http://www.w3.org/1999/xlink"><defs node-id="159"></defs><g node-id="560"><path d="M 18.80 80.10 L 21.70 80.70 L 26.70 82.80 L 31.80 86.00 L 34.10 88.60 L 35.60 92.20 L 37.20 94.40 L 39.30 96.30 L 44.30 99.40 L 46.80 100.30 L 49.20 100.70 L 55.70 99.90 L 59.60 100.30 L 61.30 100.60 L 65.90 102.80 L 125.00 68.60 L 62.50 32.30 L 3.50 66.60 L 1.50 69.40 L 1.00 71.20 L 1.10 72.60 L 2.70 75.10 L 5.60 77.10 L 8.30 78.20 L 11.10 79.00 L 18.80 80.10 Z" fill="#f3f6fd" fill-rule="nonzero" group-id="1" node-id="165" stroke="none" target-height="70.5" target-width="124" target-x="1" target-y="32.3"/><path d="M 98.30 59.40 L 98.30 61.90 L 97.90 62.40 L 57.60 85.80 L 56.60 86.10 L 55.60 85.80 L 32.20 72.30 L 31.80 71.70 L 31.80 69.30 L 32.20 69.90 L 55.60 83.40 L 56.60 83.70 L 57.70 83.40 L 97.90 60.00 L 98.30 59.40 Z" fill="#e1e9f4" fill-rule="nonzero" group-id="1" node-id="167" stroke="none" target-height="26.699997" target-width="66.5" target-x="31.8" target-y="59.4"/><path d="M 38.30 71.60 L 37.10 72.50 L 34.50 77.20 L 34.50 77.90 L 36.90 79.10 L 35.60 80.50 L 35.20 81.60 L 35.50 81.80 L 37.50 81.70 L 39.00 81.10 L 39.70 80.40 L 40.20 78.20 L 41.60 77.60 L 42.60 76.80 L 44.40 74.60 L 38.40 71.10 L 38.30 71.60 Z" fill="#e1e9f4" fill-rule="nonzero" group-id="1" node-id="169" stroke="none" target-height="10.700005" target-width="9.900002" target-x="34.5" target-y="71.1"/><path d="M 11.40 61.80 L 47.00 82.20 L 55.50 77.30 L 19.90 56.90 L 20.40 56.60 L 56.00 77.00 L 82.50 61.70 L 47.00 41.30 L 47.50 41.00 L 83.10 61.40 L 91.60 56.50 L 56.00 36.10 L 56.50 35.80 L 119.20 72.00 L 118.70 72.30 L 92.00 56.70 L 83.50 61.60 L 110.20 77.20 L 109.70 77.50 L 82.90 61.90 L 74.40 66.90 L 101.10 82.40 L 100.80 82.60 L 74.00 67.10 L 65.30 72.10 L 92.10 87.60 L 91.70 87.80 L 65.00 72.30 L 56.40 77.20 L 83.20 92.80 L 82.60 93.10 L 55.90 77.50 L 47.40 82.50 L 74.10 98.00 L 73.60 98.30 L 10.90 62.10 Z" fill="#fdfeff" fill-rule="nonzero" group-id="1" node-id="171" stroke="none" target-height="62.500004" target-width="108.299995" target-x="10.9" target-y="35.8"/></g><g node-id="561"><g node-id="562"><g node-id="567"><g node-id="577"><g node-id="590"><g node-id="610"><g node-id="616"><g node-id="626"><path d="M 47.20 27.10 L 49.10 27.10 L 49.70 27.90 L 49.30 29.60 L 48.80 30.30 L 48.20 30.20 L 47.20 29.30 L 47.20 27.10 Z" fill="#e0a4b2" fill-rule="nonzero" group-id="2,3,8,18,31,51,57,67" node-id="190" stroke="none" target-height="3.1999989" target-width="2.5" target-x="47.2" target-y="27.1"/><path d="M 46.00 58.70 L 43.50 58.70 L 43.30 59.60 L 43.60 60.00 L 46.50 61.80 L 48.30 61.70 L 48.70 61.40 L 46.50 59.70 L 46.00 58.70 Z" fill="#2a2a5e" fill-rule="nonzero" group-id="2,3,8,18,31,51,57,67" node-id="192" stroke="none" target-height="3.0999985" target-width="5.4000015" target-x="43.3" target-y="58.7"/><path d="M 50.30 56.30 L 47.80 56.50 L 47.60 57.40 L 47.90 57.80 L 50.80 59.60 L 52.60 59.50 L 53.00 59.20 L 52.80 58.90 L 50.80 57.30 L 50.30 56.30 Z" fill="#2a2a5e" fill-rule="nonzero" group-id="2,3,8,18,31,51,57,67" node-id="194" stroke="none" target-height="3.2999992" target-width="5.4000015" target-x="47.6" target-y="56.3"/><path d="M 47.20 48.20 L 47.00 45.30 L 47.60 41.90 L 51.60 41.20 L 51.00 46.70 L 50.00 51.10 L 50.30 56.60 L 49.20 57.00 L 47.80 56.60 L 47.20 52.10 L 47.20 48.20 Z" fill="#3a3a77" fill-rule="nonzero" group-id="2,3,8,18,31,51,57,67" node-id="196" stroke="none" target-height="15.799999" target-width="4.5999985" target-x="47" target-y="41.2"/><path d="M 49.00 41.60 L 44.30 41.60 L 43.40 44.80 L 43.30 46.40 L 43.60 50.20 L 43.30 53.10 L 43.40 58.80 L 45.00 59.10 L 46.00 58.80 L 45.70 53.40 L 45.90 52.20 L 48.50 46.00 L 49.00 43.90 L 49.00 41.60 Z" fill="#4c4a8b" fill-rule="nonzero" group-id="2,3,8,18,31,51,57,67" node-id="198" stroke="none" target-height="17.5" target-width="5.700001" target-x="43.3" target-y="41.6"/><path d="M 57.70 36.90 L 58.90 37.60 L 58.60 38.40 L 57.20 37.70 L 57.70 36.90 Z" fill="#ecb4bf" fill-rule="nonzero" group-id="2,3,8,18,31,51,57,67" node-id="200" stroke="none" target-height="1.5" target-width="1.7000008" target-x="57.2" target-y="36.9"/><path d="M 50.90 28.20 L 49.60 28.70 L 49.20 30.10 L 51.20 36.40 L 52.10 37.30 L 57.30 38.10 L 57.80 37.40 L 57.70 36.90 L 53.60 35.10 L 52.10 29.40 L 51.50 28.50 L 50.90 28.20 Z" fill="#3a3a77" fill-rule="nonzero" group-id="2,3,8,18,31,51,57,67" node-id="202" stroke="none" target-height="9.899998" target-width="8.599998" target-x="49.2" target-y="28.2"/><path d="M 49.40 27.50 L 49.30 28.80 L 48.70 29.30 L 47.50 28.80 L 47.10 27.80 L 46.50 29.80 L 47.30 42.10 L 49.30 42.20 L 50.80 41.70 L 51.10 33.40 L 50.30 29.40 L 49.40 27.50 Z" fill="#a6c2ff" fill-rule="nonzero" group-id="2,3,8,18,31,51,57,67" node-id="204" stroke="none" target-height="14.700001" target-width="4.5999985" target-x="46.5" target-y="27.5"/><g node-id="633"><path d="M 47.10 27.80 L 47.60 30.20 L 48.90 33.30 L 49.20 34.90 L 48.80 42.60 L 46.20 42.70 L 44.30 41.60 L 44.90 35.60 L 43.80 30.50 L 44.40 29.40 L 47.10 27.80 Z" fill="#6262aa" fill-rule="nonzero" group-id="2,3,8,18,31,51,57,67,74" node-id="208" stroke="none" target-height="14.900002" target-width="5.4000015" target-x="43.8" target-y="27.8"/><path d="M 47.10 27.80 L 47.60 30.20 L 48.90 33.30 L 49.20 34.90 L 48.80 42.60 L 46.20 42.70 L 44.30 41.60 L 44.90 35.60 L 43.80 30.50 L 44.40 29.40 L 47.10 27.80 Z" fill="#6262aa" fill-rule="nonzero" group-id="2,3,8,18,31,51,57,67,74" node-id="210" stroke="none" target-height="14.900002" target-width="5.4000015" target-x="43.8" target-y="27.8"/><path d="M 49.20 35.40 L 49.90 30.40 L 49.50 28.00 L 50.80 28.10 L 52.00 29.40 L 51.90 41.10 L 50.10 42.20 L 48.80 42.60 L 49.20 35.40 Z" fill="#6262aa" fill-rule="nonzero" group-id="2,3,8,18,31,51,57,67,74" node-id="212" stroke="none" target-height="14.599998" target-width="3.2000008" target-x="48.8" target-y="28"/></g><path d="M 50.60 24.80 L 50.40 26.40 L 49.90 24.30 L 50.60 24.80 Z" fill="#5b5d70" fill-rule="nonzero" group-id="2,3,8,18,31,51,57,67" node-id="215" stroke="none" target-height="2.1000004" target-width="0.69999695" target-x="49.9" target-y="24.3"/><path d="M 47.50 27.20 L 48.10 28.90 L 48.70 29.30 L 48.00 29.80 L 47.10 28.60 L 47.00 28.10 L 47.50 27.20 Z" fill="#6b9ef9" fill-rule="nonzero" group-id="2,3,8,18,31,51,57,67" node-id="217" stroke="none" target-height="2.5999985" target-width="1.7000008" target-x="47" target-y="27.2"/><g node-id="634"><path d="M 48.50 32.20 L 49.20 35.40 L 48.10 33.00 L 46.50 30.60 L 47.00 29.80 L 46.30 29.10 L 47.30 27.30 L 47.70 30.20 L 48.50 32.20 Z" fill="#4c4a8b" fill-rule="nonzero" group-id="2,3,8,18,31,51,57,67,75" node-id="221" stroke="none" target-height="8.100002" target-width="2.9000015" target-x="46.3" target-y="27.3"/></g><path d="M 49.40 27.60 L 50.10 27.80 L 50.20 28.20 L 49.30 29.80 L 48.70 29.30 L 49.40 27.60 Z" fill="#6b9ef9" fill-rule="nonzero" group-id="2,3,8,18,31,51,57,67" node-id="224" stroke="none" target-height="2.1999989" target-width="1.5" target-x="48.7" target-y="27.6"/><path d="M 49.20 35.40 L 49.90 30.40 L 49.50 28.00 L 49.80 27.90 L 50.60 29.00 L 50.20 29.60 L 50.70 30.20 L 50.20 33.20 L 49.20 35.40 Z" fill="#4c4a8b" fill-rule="nonzero" group-id="2,3,8,18,31,51,57,67" node-id="226" stroke="none" target-height="7.500002" target-width="1.5" target-x="49.2" target-y="27.9"/><path d="M 50.70 24.90 L 50.60 27.20 L 50.00 28.60 L 49.50 28.90 L 48.70 28.70 L 47.20 27.60 L 46.60 25.50 L 48.20 23.90 L 49.60 23.60 L 50.20 23.90 L 50.70 24.90 Z" fill="#ecb4bf" fill-rule="nonzero" group-id="2,3,8,18,31,51,57,67" node-id="228" stroke="none" target-height="5.299999" target-width="4.1000023" target-x="46.6" target-y="23.6"/></g><path d="M 48.00 23.20 L 50.00 23.40 L 51.00 24.70 L 50.90 25.00 L 49.70 25.30 L 48.30 25.30 L 47.80 26.80 L 47.50 26.80 L 47.20 25.80 L 46.80 25.80 L 47.10 27.20 L 46.50 24.90 L 47.10 23.50 L 48.00 23.20 Z" fill="#8c4031" fill-rule="nonzero" group-id="2,3,8,18,31,51,57" node-id="231" stroke="none" target-height="4" target-width="4.5" target-x="46.5" target-y="23.2"/></g></g></g></g></g></g><g node-id="563"><g node-id="568"><path d="M 91.00 67.40 L 90.00 67.80 L 92.30 69.50 L 94.80 67.80 L 93.90 67.40 L 95.30 66.40 L 94.50 66.10 L 95.90 65.10 L 94.30 64.40 L 90.20 66.80 Z" fill="#b6cbea" fill-opacity="0.5" fill-rule="nonzero" group-id="2,4,9" node-id="243" stroke="none" target-height="5.0999985" target-width="5.9000015" target-x="90" target-y="64.4"/></g><g node-id="569"><path d="M 32.20 66.40 L 72.50 43.00 L 73.50 42.70 L 74.50 43.00 L 97.90 56.50 L 98.30 56.90 L 97.90 57.70 L 57.70 81.10 L 56.60 81.30 L 55.60 81.10 L 32.20 67.50 L 31.80 67.10 L 32.20 66.40 Z" fill="#9eb5df" fill-rule="nonzero" group-id="2,4,10" node-id="248" stroke="none" target-height="38.600002" target-width="66.5" target-x="31.8" target-y="42.7"/><path d="M 98.30 57.10 L 98.30 59.50 L 97.90 60.10 L 57.60 83.50 L 56.60 83.70 L 55.60 83.50 L 32.20 70.00 L 31.80 69.40 L 31.80 67.00 L 32.20 67.50 L 55.60 81.10 L 56.60 81.30 L 57.70 81.10 L 97.90 57.70 L 98.30 57.10 Z" fill="#4c4a8b" fill-rule="nonzero" group-id="2,4,10" node-id="250" stroke="none" target-height="26.599998" target-width="66.5" target-x="31.8" target-y="57.1"/><g node-id="578"><path d="M 48.60 73.30 L 49.00 73.80 L 48.70 74.30 L 47.80 74.50 L 47.00 74.30 L 43.70 72.40 L 43.30 71.90 L 43.60 71.40 L 44.50 71.20 L 45.30 71.40 L 48.60 73.30 Z" fill="#3a3a77" fill-rule="nonzero" group-id="2,4,10,19" node-id="254" stroke="none" target-height="3.300003" target-width="5.700001" target-x="43.3" target-y="71.2"/></g><path d="M 80.70 48.20 L 86.60 51.40 L 86.60 51.60 L 86.20 51.60 L 80.70 48.40 L 80.70 48.20 Z" fill="#3a3a77" fill-rule="nonzero" group-id="2,4,10" node-id="257" stroke="none" target-height="3.3999977" target-width="5.9000015" target-x="80.7" target-y="48.2"/><g node-id="579"><path d="M 71.50 44.40 L 95.40 58.20 L 60.20 78.60 L 36.40 64.90 Z" fill="#ffffff" fill-rule="nonzero" group-id="2,4,10,20" node-id="261" stroke="none" target-height="34.199997" target-width="59" target-x="36.4" target-y="44.4"/><path d="M 69.50 50.70 L 61.00 55.80 L 64.40 58.00 L 73.90 53.10 Z" fill="#6b9ef9" fill-rule="nonzero" group-id="2,4,10,20" node-id="263" stroke="none" target-height="7.299999" target-width="12.900002" target-x="61" target-y="50.7"/><g node-id="591"><g node-id="611"><g node-id="617"><g node-id="627"><path d="M 50.30 56.70 L 52.70 58.10 L 58.80 54.60 L 56.40 53.20 Z" fill="#6b9ef9" fill-rule="nonzero" group-id="2,4,10,20,32,52,58,68" node-id="273" stroke="none" target-height="4.8999977" target-width="8.5" target-x="50.3" target-y="53.2"/></g><g node-id="628"><path d="M 82.60 60.60 L 86.90 63.10 L 87.40 62.80 L 83.10 60.30 Z" fill="#b6cbea" fill-rule="nonzero" group-id="2,4,10,20,32,52,58,69" node-id="278" stroke="none" target-height="2.7999992" target-width="4.800003" target-x="82.6" target-y="60.3"/></g><g node-id="629"><path d="M 77.90 63.30 L 82.20 65.80 L 82.70 65.50 L 78.40 63.00 Z" fill="#b6cbea" fill-rule="nonzero" group-id="2,4,10,20,32,52,58,70" node-id="283" stroke="none" target-height="2.800003" target-width="4.7999954" target-x="77.9" target-y="63"/></g><path d="M 80.10 49.40 L 80.60 49.70 L 77.70 51.30 L 80.30 52.80 L 79.80 53.10 L 76.70 51.30 Z" fill="#b6cbea" fill-rule="nonzero" group-id="2,4,10,20,32,52,58" node-id="286" stroke="none" target-height="3.699997" target-width="3.9000015" target-x="76.7" target-y="49.4"/><g node-id="630"><g node-id="635"><path d="M 55.10 75.60 L 60.20 78.60 L 62.80 77.10 L 57.60 74.20 Z" fill="#6b9ef9" fill-rule="nonzero" group-id="2,4,10,20,32,52,58,71,76" node-id="292" stroke="none" target-height="4.4000015" target-width="7.700001" target-x="55.1" target-y="74.2"/></g><g node-id="636"><path d="M 49.70 66.80 L 59.20 72.30 L 54.30 75.20 L 55.80 76.10 L 85.70 58.90 L 79.30 55.20 L 84.70 52.00 L 83.10 51.10 L 77.70 54.30 L 66.20 47.50 L 64.60 48.40 L 72.30 52.90 L 50.50 65.50 L 42.90 61.10 L 41.40 62.00 L 49.70 66.80 Z M 52.00 66.40 L 73.80 53.80 L 82.60 58.90 L 77.80 61.60 L 60.80 71.40 L 52.00 66.40 Z" fill="#dee7f8" fill-rule="nonzero" group-id="2,4,10,20,32,52,58,71,77" node-id="297" stroke="none" target-height="28.599998" target-width="44.299995" target-x="41.4" target-y="47.5"/></g><g node-id="637"><path d="M 56.20 68.80 L 56.80 69.10 L 68.40 62.40 L 72.40 64.70 L 72.90 64.40 L 64.20 59.40 L 63.60 59.60 L 67.90 62.10 Z" fill="#b6cbea" fill-rule="nonzero" group-id="2,4,10,20,32,52,58,71,78" node-id="302" stroke="none" target-height="9.699997" target-width="16.7" target-x="56.2" target-y="59.4"/></g><path d="M 74.20 65.50 L 78.60 68.00 L 69.20 73.40 L 64.80 70.90 Z" fill="#6b9ef9" fill-rule="nonzero" group-id="2,4,10,20,32,52,58,71" node-id="305" stroke="none" target-height="7.9000015" target-width="13.799995" target-x="64.8" target-y="65.5"/></g><g node-id="631"><path d="M 66.10 58.30 L 74.80 63.30 L 75.30 63.10 L 71.20 60.60 L 73.60 59.20 L 77.80 61.60 L 78.30 61.30 L 74.20 58.90 L 78.40 56.50 L 77.90 56.20 L 73.60 58.70 L 69.50 56.30 L 69.00 56.60 L 73.10 58.90 L 70.70 60.40 L 66.60 58.00 Z" fill="#b6cbea" fill-rule="nonzero" group-id="2,4,10,20,32,52,58,72" node-id="310" stroke="none" target-height="7.0999985" target-width="12.300003" target-x="66.1" target-y="56.2"/></g><path d="M 45.40 62.50 L 45.90 62.80 L 48.80 61.20 L 53.40 63.80 L 53.90 63.50 L 52.10 62.50 L 56.20 60.10 L 53.20 58.40 L 62.80 52.90 L 63.90 53.60 L 60.20 55.80 L 63.70 57.80 L 64.30 57.50 L 61.30 55.80 L 69.30 51.10 L 68.80 50.80 L 64.50 53.30 L 62.80 52.30 L 52.70 58.10 L 50.30 56.70 L 49.80 57.10 L 55.10 60.10 L 51.60 62.20 L 48.80 60.60 Z" fill="#b6cbea" fill-rule="nonzero" group-id="2,4,10,20,32,52,58,73" node-id="315" stroke="none" target-height="13" target-width="23.900002" target-x="45.4" target-y="50.8"/></g></g></g><path d="M 45.80 66.10 L 48.30 67.60 L 49.70 66.80 L 50.20 67.10 L 45.20 70.00 L 44.70 69.70 L 47.80 67.90 L 45.80 66.70 L 42.70 68.50 L 42.20 68.20 Z" fill="#b6cbea" fill-rule="nonzero" group-id="2,4,10,20,33" node-id="323" stroke="none" target-height="3.9000015" target-width="8" target-x="42.2" target-y="66.1"/></g></g><g node-id="570"><g node-id="580"><g node-id="593"><path d="M 54.10 77.80 L 55.50 76.80 L 54.60 76.50 L 56.10 75.50 L 53.60 74.50 L 53.70 73.10 L 52.90 72.80 L 52.20 73.10 L 52.10 74.40 L 49.40 75.50 L 50.70 76.50 L 49.80 76.80 L 51.10 77.80 L 50.50 78.10 L 53.00 79.50 L 55.00 78.20 Z" fill="#b6cbea" fill-opacity="0.5" fill-rule="nonzero" group-id="2,4,11,21,34" node-id="334" stroke="none" target-height="6.699997" target-width="6.699997" target-x="49.4" target-y="72.8"/></g></g><g node-id="581"><g node-id="594"><g node-id="612"><g node-id="618"><path d="M 52.90 68.50 L 52.20 68.10 L 52.20 73.10 L 52.90 73.50 Z" fill="#8c4031" fill-rule="nonzero" group-id="2,4,11,22,35,53,59" node-id="346" stroke="none" target-height="5.4000015" target-width="0.70000076" target-x="52.2" target-y="68.1"/></g><path d="M 52.90 68.50 L 52.90 73.50 L 53.70 73.10 L 53.70 68.10 Z" fill="#a0533f" fill-rule="nonzero" group-id="2,4,11,22,35,53,60" node-id="351" stroke="none" target-height="5.4000015" target-width="0.79999924" target-x="52.9" target-y="68.1"/></g></g><g node-id="595"><path d="M 56.20 69.60 L 52.90 71.50 L 52.90 66.20 Z" fill="#3887e5" fill-rule="nonzero" group-id="2,4,11,22,36" node-id="358" stroke="none" target-height="5.300003" target-width="3.2999992" target-x="52.9" target-y="66.2"/><path d="M 49.60 69.60 L 52.90 66.20 L 52.90 71.50 Z" fill="#1e72c6" fill-rule="nonzero" group-id="2,4,11,22,36" node-id="360" stroke="none" target-height="5.300003" target-width="3.300003" target-x="49.6" target-y="66.2"/></g><g node-id="596"><path d="M 55.70 67.70 L 52.90 69.30 L 52.90 64.80 Z" fill="#6b9ef9" fill-rule="nonzero" group-id="2,4,11,22,37" node-id="365" stroke="none" target-height="4.5" target-width="2.7999992" target-x="52.9" target-y="64.8"/><path d="M 50.10 67.70 L 52.90 64.80 L 52.90 69.30 Z" fill="#3887e5" fill-rule="nonzero" group-id="2,4,11,22,37" node-id="367" stroke="none" target-height="4.5" target-width="2.800003" target-x="50.1" target-y="64.8"/></g><g node-id="597"><path d="M 55.30 65.80 L 52.90 67.20 L 52.90 63.30 Z" fill="#a6c2ff" fill-rule="nonzero" group-id="2,4,11,22,38" node-id="372" stroke="none" target-height="3.8999977" target-width="2.3999977" target-x="52.9" target-y="63.3"/><path d="M 50.50 65.80 L 52.90 63.30 L 52.90 67.20 Z" fill="#6b9ef9" fill-rule="nonzero" group-id="2,4,11,22,38" node-id="374" stroke="none" target-height="3.8999977" target-width="2.4000015" target-x="50.5" target-y="63.3"/></g></g></g><g node-id="571"><g node-id="582"><path d="M 62.10 65.50 L 60.70 64.50 L 63.40 63.40 L 63.50 62.10 L 64.30 61.70 L 65.00 62.00 L 64.90 63.50 L 67.40 64.50 L 66.00 65.50 L 66.80 65.80 L 65.40 66.80 L 66.30 67.20 L 63.80 68.90 L 61.50 67.20 L 62.50 66.80 L 61.10 65.80 Z" fill="#b6cbea" fill-opacity="0.5" fill-rule="nonzero" group-id="2,4,12,23" node-id="383" stroke="none" target-height="7.200001" target-width="6.700001" target-x="60.7" target-y="61.7"/></g><g node-id="583"><g node-id="598"><g node-id="613"><g node-id="620"><path d="M 64.30 57.50 L 63.50 57.10 L 63.50 62.10 L 64.30 62.50 Z" fill="#8c4031" fill-rule="nonzero" group-id="2,4,12,24,39,54,61" node-id="394" stroke="none" target-height="5.4000015" target-width="0.80000305" target-x="63.5" target-y="57.1"/></g><path d="M 64.30 57.50 L 64.30 62.50 L 65.00 62.00 L 65.00 57.00 Z" fill="#a0533f" fill-rule="nonzero" group-id="2,4,12,24,39,54,62" node-id="399" stroke="none" target-height="5.5" target-width="0.69999695" target-x="64.3" target-y="57"/></g></g><g node-id="599"><path d="M 67.60 58.60 L 64.20 60.50 L 64.20 55.20 Z" fill="#3887e5" fill-rule="nonzero" group-id="2,4,12,24,40" node-id="406" stroke="none" target-height="5.299999" target-width="3.4000015" target-x="64.2" target-y="55.2"/><path d="M 60.90 58.60 L 64.20 55.20 L 64.20 60.50 Z" fill="#1e72c6" fill-rule="nonzero" group-id="2,4,12,24,40" node-id="408" stroke="none" target-height="5.299999" target-width="3.2999954" target-x="60.9" target-y="55.2"/></g><g node-id="600"><path d="M 67.10 56.70 L 64.20 58.30 L 64.20 53.80 Z" fill="#6b9ef9" fill-rule="nonzero" group-id="2,4,12,24,41" node-id="413" stroke="none" target-height="4.5" target-width="2.9000015" target-x="64.2" target-y="53.8"/><path d="M 61.40 56.70 L 64.20 53.80 L 64.20 58.30 Z" fill="#3887e5" fill-rule="nonzero" group-id="2,4,12,24,41" node-id="415" stroke="none" target-height="4.5" target-width="2.7999954" target-x="61.4" target-y="53.8"/></g><g node-id="601"><path d="M 66.60 54.80 L 64.20 56.10 L 64.20 52.30 Z" fill="#a6c2ff" fill-rule="nonzero" group-id="2,4,12,24,42" node-id="420" stroke="none" target-height="3.7999992" target-width="2.4000015" target-x="64.2" target-y="52.3"/><path d="M 61.80 54.80 L 64.20 52.30 L 64.20 56.10 Z" fill="#6b9ef9" fill-rule="nonzero" group-id="2,4,12,24,42" node-id="422" stroke="none" target-height="3.7999992" target-width="2.3999977" target-x="61.8" target-y="52.3"/></g></g></g><g node-id="572"><g node-id="584"><path d="M 69.60 50.40 L 68.30 49.50 L 71.00 48.40 L 71.10 47.00 L 71.80 46.70 L 72.50 47.00 L 72.50 48.40 L 74.90 49.50 L 73.50 50.40 L 74.40 50.80 L 72.90 51.80 L 73.90 52.10 L 71.40 53.80 L 69.00 52.10 L 70.00 51.80 L 68.70 50.80 Z" fill="#b6cbea" fill-opacity="0.5" fill-rule="nonzero" group-id="2,4,13,25" node-id="431" stroke="none" target-height="7.0999985" target-width="6.5999985" target-x="68.3" target-y="46.7"/></g><g node-id="585"><g node-id="602"><g node-id="614"><g node-id="622"><path d="M 71.80 42.40 L 71.10 42.00 L 71.10 47.00 L 71.80 47.40 Z" fill="#8c4031" fill-rule="nonzero" group-id="2,4,13,26,43,55,63" node-id="442" stroke="none" target-height="5.4000015" target-width="0.7000046" target-x="71.1" target-y="42"/></g><path d="M 71.80 42.40 L 71.80 47.40 L 72.50 47.00 L 72.50 42.00 Z" fill="#a0533f" fill-rule="nonzero" group-id="2,4,13,26,43,55,64" node-id="447" stroke="none" target-height="5.4000015" target-width="0.69999695" target-x="71.8" target-y="42"/></g></g><g node-id="603"><path d="M 75.10 43.50 L 71.80 45.50 L 71.80 40.20 Z" fill="#3887e5" fill-rule="nonzero" group-id="2,4,13,26,44" node-id="454" stroke="none" target-height="5.299999" target-width="3.2999954" target-x="71.8" target-y="40.2"/><path d="M 68.40 43.50 L 71.80 40.20 L 71.80 45.50 Z" fill="#1e72c6" fill-rule="nonzero" group-id="2,4,13,26,44" node-id="456" stroke="none" target-height="5.299999" target-width="3.4000015" target-x="68.4" target-y="40.2"/></g><g node-id="604"><path d="M 74.60 41.60 L 71.80 43.30 L 71.80 38.80 Z" fill="#6b9ef9" fill-rule="nonzero" group-id="2,4,13,26,45" node-id="461" stroke="none" target-height="4.5" target-width="2.7999954" target-x="71.8" target-y="38.8"/><path d="M 68.90 41.60 L 71.80 38.80 L 71.80 43.30 Z" fill="#3887e5" fill-rule="nonzero" group-id="2,4,13,26,45" node-id="463" stroke="none" target-height="4.5" target-width="2.9000015" target-x="68.9" target-y="38.8"/></g><g node-id="605"><path d="M 74.20 39.70 L 71.80 41.10 L 71.80 37.30 Z" fill="#a6c2ff" fill-rule="nonzero" group-id="2,4,13,26,46" node-id="468" stroke="none" target-height="3.7999992" target-width="2.399994" target-x="71.8" target-y="37.3"/><path d="M 69.40 39.70 L 71.80 37.30 L 71.80 41.10 Z" fill="#6b9ef9" fill-rule="nonzero" group-id="2,4,13,26,46" node-id="470" stroke="none" target-height="3.7999992" target-width="2.4000015" target-x="69.4" target-y="37.3"/></g></g></g><g node-id="573"><g node-id="586"><path d="M 92.30 58.70 L 91.60 58.40 L 90.80 58.70 L 90.70 60.10 L 88.00 61.10 L 89.40 62.10 L 88.50 62.50 L 89.00 62.90 L 93.10 60.50 L 92.20 60.10 Z" fill="#b6cbea" fill-opacity="0.5" fill-rule="nonzero" group-id="2,4,14,27" node-id="479" stroke="none" target-height="4.5" target-width="5.0999985" target-x="88" target-y="58.4"/></g></g><g node-id="574"><g node-id="587"><g node-id="606"><g node-id="615"><g node-id="624"><path d="M 91.60 54.10 L 90.80 53.70 L 90.80 58.70 L 91.60 59.10 Z" fill="#8c4031" fill-rule="nonzero" group-id="2,4,15,28,47,56,65" node-id="493" stroke="none" target-height="5.3999977" target-width="0.7999954" target-x="90.8" target-y="53.7"/></g><path d="M 91.60 54.10 L 91.60 59.10 L 92.30 58.70 L 92.30 53.70 Z" fill="#a0533f" fill-rule="nonzero" group-id="2,4,15,28,47,56,66" node-id="498" stroke="none" target-height="5.3999977" target-width="0.7000046" target-x="91.6" target-y="53.7"/></g></g><g node-id="607"><path d="M 94.90 55.20 L 91.50 57.20 L 91.50 51.90 Z" fill="#3887e5" fill-rule="nonzero" group-id="2,4,15,28,48" node-id="505" stroke="none" target-height="5.299999" target-width="3.4000015" target-x="91.5" target-y="51.9"/><path d="M 88.20 55.20 L 91.50 51.90 L 91.50 57.20 Z" fill="#1e72c6" fill-rule="nonzero" group-id="2,4,15,28,48" node-id="507" stroke="none" target-height="5.299999" target-width="3.300003" target-x="88.2" target-y="51.9"/></g><g node-id="608"><path d="M 94.40 53.30 L 91.50 55.00 L 91.50 50.50 Z" fill="#6b9ef9" fill-rule="nonzero" group-id="2,4,15,28,49" node-id="512" stroke="none" target-height="4.5" target-width="2.9000015" target-x="91.5" target-y="50.5"/><path d="M 88.70 53.30 L 91.50 50.50 L 91.50 55.00 Z" fill="#3887e5" fill-rule="nonzero" group-id="2,4,15,28,49" node-id="514" stroke="none" target-height="4.5" target-width="2.800003" target-x="88.7" target-y="50.5"/></g><g node-id="609"><path d="M 93.90 51.40 L 91.50 52.80 L 91.50 49.00 Z" fill="#a6c2ff" fill-rule="nonzero" group-id="2,4,15,28,50" node-id="519" stroke="none" target-height="3.7999992" target-width="2.4000015" target-x="91.5" target-y="49"/><path d="M 89.10 51.40 L 91.50 49.00 L 91.50 52.80 Z" fill="#6b9ef9" fill-rule="nonzero" group-id="2,4,15,28,50" node-id="521" stroke="none" target-height="3.7999992" target-width="2.4000015" target-x="89.1" target-y="49"/></g></g></g></g><g node-id="564"><g node-id="575"><g node-id="588"><path d="M 52.50 48.50 L 51.40 47.80 L 52.40 48.10 L 53.70 47.60 L 54.90 46.70 L 56.50 43.70 L 56.80 42.20 L 56.50 40.90 L 55.90 40.20 L 57.60 41.60 L 57.90 42.90 L 57.60 44.40 L 55.90 47.30 L 54.70 48.30 L 53.50 48.70 L 52.50 48.50 Z" fill="#a6c2ff" fill-rule="nonzero" group-id="2,5,16,29" node-id="533" stroke="none" target-height="8.5" target-width="6.5" target-x="51.4" target-y="40.2"/><path d="M 53.60 37.80 L 55.20 37.20 L 56.40 37.10 L 58.60 38.10 L 57.50 37.70 L 56.30 37.80 L 54.70 38.50 L 53.30 39.50 L 50.90 42.50 L 49.50 46.00 L 49.30 47.80 L 50.10 50.50 L 52.00 53.20 L 54.80 56.20 L 53.70 55.60 L 50.90 52.60 L 49.10 49.90 L 48.20 47.20 L 48.40 45.40 L 49.80 41.90 L 52.20 38.90 L 53.60 37.80 Z" fill="#a6c2ff" fill-rule="nonzero" group-id="2,5,16,29" node-id="535" stroke="none" target-height="19.100002" target-width="10.399998" target-x="48.2" target-y="37.1"/></g><path d="M 60.10 41.50 L 59.30 45.20 L 54.80 56.20 L 52.00 53.20 L 50.10 50.50 L 49.30 47.80 L 49.50 46.00 L 50.90 42.50 L 53.30 39.50 L 54.70 38.50 L 56.30 37.80 L 57.50 37.70 L 58.50 38.10 L 59.40 38.80 L 59.90 39.90 L 60.10 41.50 Z M 54.70 48.30 L 55.90 47.30 L 56.90 45.90 L 57.60 44.40 L 57.90 42.90 L 57.60 41.60 L 56.90 40.90 L 56.00 40.70 L 54.70 41.10 L 53.50 42.00 L 52.50 43.40 L 51.80 45.00 L 51.60 46.50 L 51.90 47.80 L 52.50 48.50 L 53.50 48.70 L 54.70 48.30 Z" fill="#1e72c6" fill-rule="nonzero" group-id="2,5,16,30" node-id="540" stroke="none" target-height="18.5" target-width="10.799999" target-x="49.3" target-y="37.7"/></g></g><g node-id="565"><path d="M 48.90 40.10 L 50.20 41.40 L 51.10 41.90 L 51.30 42.00 L 51.10 41.50 L 52.40 41.70 L 51.90 41.30 L 52.60 41.30 L 51.10 40.40 L 52.10 40.10 L 49.50 39.60 L 48.90 40.10 Z" fill="#ecb4bf" fill-rule="nonzero" group-id="2,6" node-id="547" stroke="none" target-height="2.4000015" target-width="3.699997" target-x="48.9" target-y="39.6"/><path d="M 47.10 37.50 L 46.60 37.00 L 46.40 36.20 L 46.50 30.80 L 46.20 29.80 L 45.60 29.40 L 44.30 29.50 L 43.60 30.90 L 43.90 37.70 L 44.60 38.70 L 49.40 40.70 L 50.00 40.20 L 50.10 39.60 L 47.10 37.50 Z" fill="#4c4a8b" fill-rule="nonzero" group-id="2,6" node-id="549" stroke="none" target-height="11.300001" target-width="6.5" target-x="43.6" target-y="29.4"/></g><path d="M 58.30 37.20 L 59.30 38.00 L 59.40 38.60 L 59.00 38.90 L 58.00 38.30 L 58.30 37.20 Z" fill="#ecb4bf" fill-rule="nonzero" group-id="2" node-id="552" stroke="none" target-height="1.7000008" target-width="1.4000015" target-x="58" target-y="37.2"/><g node-id="566"><g node-id="576"><path d="M 46.70 72.30 L 51.40 70.50 L 52.70 69.40 L 52.50 69.20 L 50.60 70.20 L 44.70 71.60 L 45.70 69.60 L 46.10 69.40 L 45.80 69.30 L 46.10 69.00 L 46.90 68.50 L 46.30 68.60 L 46.90 68.30 L 46.10 68.40 L 47.30 64.90 L 47.40 63.10 L 50.30 55.80 L 47.60 57.40 L 44.40 64.00 L 44.00 62.00 L 45.50 58.60 L 42.60 60.30 L 41.10 63.80 L 39.00 67.50 L 38.40 71.10 L 44.40 74.60 L 45.30 73.30 L 46.70 72.30 Z" fill="#b6cbea" fill-opacity="0.5" fill-rule="nonzero" group-id="2,7,17" node-id="558" stroke="none" target-height="18.8" target-width="14.299999" target-x="38.4" target-y="55.8"/></g></g></g></svg>