<svg class="icon" width="200px" height="200.00px" viewBox="0 0 1024 1024" version="1.1"
  xmlns="http://www.w3.org/2000/svg">
  <path
    d="M715.008 125.781333a42.666667 42.666667 0 0 0-59.733333-8.405333L61.013333 565.12a42.666667 42.666667 0 0 0-8.362666 59.733333L245.333333 880.64a42.666667 42.666667 0 0 0 34.048 16.981333H950.741333a42.666667 42.666667 0 1 0 0-85.333333h-322.218666l54.101333-37.717333a42.453333 42.453333 0 0 0 1.322667-0.938667l297.088-223.872a42.666667 42.666667 0 0 0 8.405333-59.733333l-274.432-364.202667z m-225.152 686.421334H300.714667L146.517333 607.573333l147.797334-111.36 232.192 286.634667-36.650667 29.354667z"
    fill-opacity=".85" />
</svg>