<svg t="1734429276028" class="icon" viewBox="0 0 1024 1024" version="1.1"
  xmlns="http://www.w3.org/2000/svg" p-id="7054" width="200" height="200">
  <path
    d="M134 297.4c22 11.6 327.6 178.2 339 184.2 11.4 6 23 8.8 41 8.8 18 0 29.6-2.8 41-8.8 11.4-6 317-172.6 339-184.2 8.2-4.2 22-11.8 25-20.4 5.2-15.2-0.4-21-22.6-21L514 256 131.6 256c-22.2 0-27.8 6-22.6 21C112 285.8 125.8 293.2 134 297.4z"
    p-id="7055"></path>
  <path
    d="M911.4 306.4c-16.4 8.4-163.6 113.2-261 176.2l164.4 185c4 4 5.8 8.8 3.6 11.2-2.4 2.2-7.6 1-11.8-2.8l-197.2-166.4c-29.8 19.2-50.8 32.4-54.4 34.4-15.4 7.8-26.2 8.8-41 8.8-14.8 0-25.6-1-41-8.8-3.8-2-24.6-15.2-54.4-34.4l-197.2 166.4c-4 4-9.4 5.2-11.8 2.8-2.4-2.2-0.6-7.2 3.4-11.2l164.2-185c-97.4-63-246.2-167.8-262.6-176.2-17.6-9-18.6 1.6-18.6 9.8 0 8.2 0 410 0 410 0 18.6 27.4 41.8 47 41.8L514 768l371 0c19.6 0 43-23.4 43-41.8 0 0 0-402 0-410C928 307.8 929.2 297.4 911.4 306.4z"
    p-id="7056"></path>
</svg>