<svg t="1734507487166" class="icon" viewBox="0 0 1024 1024" version="1.1"
  xmlns="http://www.w3.org/2000/svg" p-id="4277" width="200" height="200">
  <path
    d="M911.639273 523.636364c36.352 0 65.815273 30.254545 65.815272 67.630545 0 28.532364-17.221818 52.922182-41.472 62.836364v51.572363c0 30.394182-14.522182 58.740364-38.679272 76.194909l-6.842182 4.468364-333.079273 197.678546a90.205091 90.205091 0 0 1-85.038545 3.863272l-7.261091-3.863272-333.079273-197.678546a93.556364 93.556364 0 0 1-45.149091-72.424727l-0.372363-8.238546v-104.122181c0-14.196364 11.589818-25.693091 25.879272-25.693091 12.660364 0 23.272727 9.076364 25.413818 21.085091l0.465455 4.654545v104.075636c0 13.265455 5.957818 25.6 15.825455 33.419637l4.421818 3.072 333.079272 197.678545a38.260364 38.260364 0 0 0 33.931637 2.653091l5.399273-2.653091 333.079272-197.678545a42.030545 42.030545 0 0 0 19.921455-30.859637l0.372363-5.632-0.09309-52.922181a67.770182 67.770182 0 0 1-38.30691-61.486546c0-37.376 29.463273-67.630545 65.768728-67.630545zM541.835636 24.622545l8.285091 3.444364 7.261091 3.909818 333.079273 197.678546c25.879273 15.36 42.542545 42.449455 45.149091 72.424727l0.372363 8.238545V438.458182a25.832727 25.832727 0 1 1-51.29309 4.654545l-0.465455-4.654545V310.318545a42.635636 42.635636 0 0 0-15.825455-33.419636l-4.421818-3.072-333.079272-197.678545a38.260364 38.260364 0 0 0-33.978182-2.653091l-5.352728 2.653091-333.079272 197.678545a42.030545 42.030545 0 0 0-19.921455 30.859636l-0.372363 5.585455 0.046545 66.048c23.458909 10.333091 39.889455 34.304 39.889455 62.184727 0 37.329455-29.463273 67.630545-65.768728 67.630546-36.352 0-65.815273-30.254545-65.815272-67.630546 0-27.927273 16.430545-51.898182 39.936-62.231272V310.318545c0-30.394182 14.522182-58.786909 38.679272-76.194909l6.842182-4.468363L465.082182 31.976727c23.505455-13.963636 51.665455-16.430545 76.8-7.354182z"
    p-id="4278"></path>
  <path
    d="M474.856727 176.500364L248.413091 310.923636a71.214545 71.214545 0 0 0-34.909091 61.253819v271.639272c0 25.134545 13.265455 48.407273 34.909091 61.253818l226.443636 134.423273a71.214545 71.214545 0 0 0 72.750546 0l226.443636-134.423273a71.214545 71.214545 0 0 0 34.909091-61.253818V372.177455c0-25.134545-13.265455-48.407273-34.909091-61.253819l-226.443636-134.423272a71.214545 71.214545 0 0 0-72.750546 0z m59.671273 22.016l226.490182 134.423272a45.614545 45.614545 0 0 1 22.341818 39.237819v271.639272a45.614545 45.614545 0 0 1-22.341818 39.237818l-226.490182 134.423273a45.614545 45.614545 0 0 1-46.592 0l-226.490182-134.423273a45.614545 45.614545 0 0 1-22.341818-39.237818V372.177455a45.614545 45.614545 0 0 1 22.341818-39.237819l226.490182-134.423272a45.614545 45.614545 0 0 1 46.545455 0z"
    p-id="4279"></path>
  <path
    d="M387.072 632.738909l23.505455-64.465454h108.264727l23.505454 64.465454h45.288728L488.727273 375.575273H440.645818l-98.862545 257.163636h45.288727z m119.109818-99.048727H423.237818l40.96-112.733091h1.396364l40.587636 112.733091z m149.131637 99.048727V375.575273h-42.356364v257.163636h42.356364z"
    p-id="4280"></path>
</svg>