<svg t="1735810279025" class="icon" viewBox="0 0 1024 1024" version="1.1" xmlns="http://www.w3.org/2000/svg" p-id="3390" width="200" height="200"><path d="M512 1023.2C229.6 1023.2 0.8 794.4 0 512 0.8 229.6 229.6 0.8 512 0.8s511.2 228.8 512 511.2c0 100-29.6 198.4-85.6 281.6 50.4 194.4 41.6 202.4 32 212.8-5.6 5.6-13.6 8-21.6 8-33.6 0-168-34.4-208-44.8-71.2 35.2-149.6 53.6-228.8 53.6zM406.4 348.8H344l-38.4 335.2H368l14.4-125.6h124.8l-14.4 125.6h62.4l38.4-335.2h-62.4l-16.8 146.4H389.6l16.8-146.4z m300.8 104h-62.4l-26.4 229.6h62.4l26.4-229.6z m-19.2-104c-17.6 0.8-32.8 13.6-35.2 31.2-0.8 8 1.6 16 6.4 22.4 5.6 5.6 12.8 9.6 20.8 8.8 17.6-0.8 32.8-13.6 35.2-31.2 0.8-8-1.6-16-6.4-22.4-4.8-6.4-12-9.6-20.8-8.8z" p-id="3391" fill="rgb(128, 203, 196)"></path></svg>