<svg t="1734507962072" class="icon" viewBox="0 0 1024 1024" version="1.1"
  xmlns="http://www.w3.org/2000/svg" p-id="5300" width="200" height="200">
  <path
    d="M903.2704 129.28H132.8128a30.72 30.72 0 0 0-30.72 30.72V720.896a30.72 30.72 0 0 0 30.72 30.72h770.4576a30.72 30.72 0 0 0 30.72-30.72V160a30.72 30.72 0 0 0-30.72-30.72z m-30.72 560.896H163.5328V190.72h709.0176z"
    p-id="5301"></path>
  <path
    d="M468.7872 585.3184a30.72 30.72 0 0 0 24.7296 12.4928 30.0032 30.0032 0 0 0 5.12-0.4608 30.72 30.72 0 0 0 24.1664-21.3504l47.4624-156.16 9.9328 33.024a30.72 30.72 0 0 0 29.44 21.8624h171.1104v-61.44h-148.48l-32.6144-108.544a30.72 30.72 0 0 0-29.3888-21.8624 30.72 30.72 0 0 0-29.3888 21.8112l-59.0848 194.56L419.5328 414.72a30.72 30.72 0 0 0-24.7808-12.544H255.2832v61.44h123.9552zM276.992 827.392h484.7104v61.44H276.992z"
    p-id="5302"></path>
</svg>