<svg class="icon" width="200px" height="200.00px" viewBox="0 0 1024 1024" version="1.1"
  xmlns="http://www.w3.org/2000/svg">
  <path
    d="M953.6 608l-108.8-192 44.8-96c6.4-6.4 12.8-19.2 6.4-32l-64-108.8c-6.4-6.4-12.8-12.8-19.2-12.8H588.8l-51.2-89.6c-6.4-6.4-12.8-12.8-19.2-12.8H396.8c-6.4 0-19.2 6.4-19.2 12.8v6.4l-115.2 192H153.6c-12.8 0-19.2 6.4-25.6 12.8L64 403.2v25.6l115.2 198.4-51.2 83.2v25.6l57.6 102.4c6.4 6.4 12.8 12.8 19.2 12.8h230.4l57.6 96c6.4 6.4 12.8 12.8 19.2 12.8h128c6.4 0 19.2-6.4 19.2-12.8l115.2-198.4h102.4c6.4 0 19.2-6.4 19.2-12.8l57.6-102.4c6.4-6.4 6.4-19.2 0-25.6z m-140.8 12.8L755.2 512l-236.8 422.4-64-108.8H211.2l57.6-102.4h121.6L153.6 300.8h128l121.6-211.2 51.2 102.4-64 108.8h480l-57.6 108.8 121.6 211.2h-121.6z" />
  <path d="M499.2 678.4l153.6-243.2H345.6z" />
</svg>