<svg t="1735116349960" class="icon" viewBox="0 0 1024 1024" version="1.1" xmlns="http://www.w3.org/2000/svg" p-id="1474" width="200" height="200"><path d="M922.88 43.2h-218.24V0H319.68v43.2H101.12c-8.64 0-16 7.04-16 16V1008c0 8.64 7.04 16 16 16h821.44c8.64 0 16-7.04 16-16V59.2c0-8.96-7.04-16-15.68-16zM853.44 880c0 8.64-7.04 16-16 16H186.56c-8.64 0-16-7.04-16-16v-736c0-8.64 7.04-16 16-16h117.12c8.64 0 16 7.04 16 16v32c0 8.64 7.04 16 16 16h352.96c8.64 0 16-7.04 16-16v-32c0-8.64 7.04-16 16-16h117.12c8.64 0 16 7.04 16 16v736z"  p-id="1475"></path><path d="M280 429.44l0.64 0.64 6.08 6.08c1.28 1.6 2.88 2.24 4.48 2.56h1.6c1.92 0 4.16-0.64 5.76-2.24l2.24-2.24 0.64-0.64 78.72-78.72c3.84-3.84 3.84-10.56 0-14.4l-8.32-8.32a10.432 10.432 0 0 0-14.4 0l-28.8 28.8c-0.32 0.32-0.64 0.64-0.64 0.96L293.12 396.8l-28.16-28.16a13.76 13.76 0 0 0-7.36-3.2c-2.24 0-5.76 1.6-7.36 2.88l-8.32 8.32c-1.92 1.92-2.88 4.48-3.2 7.36 0 2.24 1.6 5.76 2.88 7.36l38.4 38.08zM792 352h-303.68c-4.8 0-8.32 3.84-8.32 8.32v47.68c0 4.48 3.52 8 8 8h303.68c4.48 0 8-3.52 8-8v-47.68c0.32-4.48-3.2-8.32-7.68-8.32zM371.2 492.16c-4.16-3.84-10.56-4.16-14.4 0l-28.8 28.8c-0.32 0.32-0.64 0.64-0.64 0.96L292.48 556.8l-28.16-28.8a10.432 10.432 0 0 0-14.4 0l-8.32 8.32c-3.84 3.84-3.84 10.56 0 14.4l38.4 38.4 0.64 0.64 6.08 6.08c1.28 1.6 2.88 2.24 4.48 2.56h1.6c1.92 0 4.16-0.96 5.76-2.24l2.24-2.24 0.64-0.64 78.72-78.72c3.84-3.84 3.84-10.56 0-14.4l-8.96-8zM792 511.68h-304c-4.48 0-8 3.52-8 8v48c0 4.48 3.52 8 8 8h304c4.48 0 8-3.52 8-8v-48c0-4.16-3.52-8-8-8zM371.2 652.48a9.856 9.856 0 0 0-14.4 0l-28.8 28.8c-0.32 0.32-0.32 0.64-0.64 0.64L292.48 716.8l-28.16-28.16a9.376 9.376 0 0 0-7.36-3.2c-2.24 0-5.76 1.6-7.36 2.88l-8.32 8.32c-3.84 3.84-3.84 10.56 0 14.4l38.4 38.4 0.64 0.64 6.08 6.08c1.6 1.6 3.2 2.24 4.8 2.56h1.6c1.92 0 4.16-0.64 5.76-2.24l81.28-81.28c1.6-1.6 2.88-5.12 2.88-7.36s-1.6-5.76-2.88-7.36l-8.64-8zM792 672h-304c-4.48 0-8 3.84-8 8v48c0 4.48 3.52 8 8 8h304c4.48 0 8-3.52 8-8v-48c0-4.16-3.52-8-8-8z"  p-id="1476"></path></svg>