<svg t="1734508084745" class="icon" viewBox="0 0 1488 1024" version="1.1"
  xmlns="http://www.w3.org/2000/svg" p-id="8230" width="200" height="200">
  <path
    d="M519.006336 736.008984c-17.675216 0-32.000391 14.325175-32.000391 32.000391s14.325175 32.000391 32.000391 32.000391H775.009461c17.675216 0 32.000391-14.325175 32.00039-32.000391s-14.337675-32.000391-32.00039-32.000391H519.006336zM991.437103 555.331779c-5.875072-6.925085-14.625179-11.337638-24.425299-11.337638H519.006336c-17.675216 0-32.000391 14.325175-32.000391 32.00039s14.325175 32.000391 32.000391 32.000391h403.579926c19.600239-21.33776 42.875523-39.225479 68.850841-52.663143zM1127.013757 159.989453v368.6795c22.312772 1.937524 43.775534 6.812583 64.000782 14.262675V159.989453c0-53.013147-42.988025-96.001172-96.001172-96.001172h-96.001172v64.000781H1095.013367c17.675216 0 32.000391 14.337675 32.00039 32.000391zM519.006336 416.005078h448.005468c17.675216 0 32.000391-14.325175 32.000391-32.00039s-14.325175-32.000391-32.000391-32.000391H519.006336c-17.675216 0-32.000391 14.325175-32.000391 32.000391 0 17.662716 14.325175 32.000391 32.000391 32.00039zM647.007898 192.002344h192.002344c53.025647 0 96.001172-42.988025 96.001172-96.001172 0-53.025647-42.975525-96.001172-96.001172-96.001172H647.007898c-53.025647 0-96.001172 42.975525-96.001172 96.001172 0 53.013147 42.975525 96.001172 96.001172 96.001172z m0-128.014063h192.002344c17.675216 0 32.000391 14.325175 32.00039 32.000391s-14.325175 32.000391-32.00039 32.00039H647.007898c-17.675216 0-32.000391-14.325175-32.000391-32.00039s14.325175-32.000391 32.000391-32.000391z"
    p-id="8231"></path>
  <path
    d="M939.223965 959.999219H391.004773c-17.675216 0-32.000391-14.325175-32.000391-32.000391v-768.009375c0-17.675216 14.325175-32.000391 32.000391-32.000391h96.001172v-64.000781h-96.001172c-53.025647 0-96.001172 42.988025-96.001172 96.001172v768.009375c0 53.025647 42.975525 96.001172 96.001172 96.001172H1095.013367c2.275028 0 4.512555-0.112501 6.750082-0.262503-62.488263-0.862511-119.376457-24.812803-162.539484-63.738278z"
    p-id="8232"></path>
  <path
    d="M1280.278128 716.521247l-135.301651-110.376348a7.39009 7.39009 0 0 0-7.837596-0.975012 7.431341 7.431341 0 0 0-4.262552 6.650082v41.138002a7.481341 7.481341 0 0 1-6.737582 7.312589c-175.202139 17.275211-197.40241 161.214468-198.464923 229.327799-0.0125 3.450042 2.350029 6.462579 5.71257 7.237589 3.362541 0.78751 6.825083-0.862511 8.337602-3.962549 32.900402-67.763327 102.488751-103.638765 183.439739-106.913805a7.462591 7.462591 0 0 1 5.437566 2.112526 7.508842 7.508842 0 0 1 2.275028 5.375066v39.637983a7.38884 7.38884 0 0 0 4.212551 6.712582c2.587532 1.237515 5.662569 0.862511 7.875097-0.962511l135.301651-111.038856a7.453841 7.453841 0 0 0 2.562532-5.637569c0.025-2.162526-0.912511-4.212551-2.550032-5.637568z"
    p-id="8233"></path>
</svg>