<svg t="1735116562889" class="icon" viewBox="0 0 1078 1024" version="1.1" xmlns="http://www.w3.org/2000/svg" p-id="4506" width="200" height="200"><path d="M209.051693 991.111427C176.91933 968.314584 161.084133 930.411703 167.808317 892.158108L205.330293 678.644402C208.230418 662.085379 202.635486 645.200686 190.290705 633.451547L31.374101 482.240854C2.911809 455.185264-7.123138 415.453628 5.144649 378.552808 17.4381 341.677039 49.493468 315.297838 88.811982 309.736411L308.451565 278.572379C325.493009 276.142386 340.198955 265.720974 347.821408 250.665038L446.040698 56.390866C463.595439 21.59437 499.218217 0 538.947368 0 578.67652 0 614.299298 21.59437 631.854037 56.390866L730.073331 250.665038C737.695782 265.720974 752.401726 276.142386 769.443172 278.572379L989.082753 309.736411C1028.401271 315.297838 1060.456637 341.677039 1072.750091 378.552808 1085.017875 415.453628 1074.982928 455.185264 1046.520638 482.240854L887.60403 633.451547C875.259252 645.200686 869.664321 662.085379 872.564445 678.644402L910.086419 892.158108C916.810606 930.411703 900.975406 968.314584 868.843046 991.111427 836.736345 1013.883214 794.954008 1016.839287 759.716201 998.777177L563.25196 897.970047C548.058381 890.17904 529.86202 890.153989 514.617113 897.995097L318.178534 998.777177C302.882297 1006.64334 286.328484 1010.526316 269.877331 1010.526316 248.472866 1010.526316 227.222389 1003.987882 209.051693 991.111427Z"  p-id="4507"></path></svg>