<svg class="icon" width="200px" height="200.00px" viewBox="0 0 1024 1024" version="1.1"
  xmlns="http://www.w3.org/2000/svg">
  <path
    d="M512 42.666667a277.333333 277.333333 0 0 0-277.333333 277.333333v515.669333l-33.834667-33.834666a42.666667 42.666667 0 0 0-60.330667 60.330666l106.666667 106.666667A42.538667 42.538667 0 0 0 276.906667 981.333333h0.768a42.538667 42.538667 0 0 0 29.781333-12.501333l106.666667-106.666667a42.666667 42.666667 0 0 0-60.330667-60.330666l-33.834667 33.834666V320a192 192 0 0 1 170.368-190.805333l0.682667-0.085334A192 192 0 0 1 704 320v368.853333A149.418667 149.418667 0 0 0 746.709333 981.333333a149.333333 149.333333 0 0 0 42.666667-292.48V320A277.333333 277.333333 0 0 0 512 42.666667z m170.666667 789.333333a64 64 0 1 1 128 0 64 64 0 0 1-128 0z"
    fill-opacity=".85" />
  <path d="M746.666667 768a64 64 0 1 0 0 128 64 64 0 0 0 0-128z"
    fill-opacity=".85" />
</svg>